# xmcd
#
# Track frame offsets: 
#        150
#        13014
#        26287
#        45684
#        60480
#        77125
#        91540
#        111577
#        129317
#        146192
#        164115
#
# Disc length: 2436 seconds
#
# Revision: 0
# Processed by: cddbd v1.5.2PL0 Copyright (c) Steve Scherf et al.
# Submitted via: ExactAudioCopy v0.99pb5
#
DISCID=8e09820b
DTITLE=JD and the Straight Shot - Ballyhoo
DYEAR=2016
DGENRE=Country
TTITLE0=01_Empty
TTITLE1=02_Better Find a Church
TTITLE2=03_Under That Hood
TTITLE3=04_Perdition
TTITLE4=05_Glide
TTITLE5=06_Nature's Way
TTITLE6=07_Don't Waste My Time
TTITLE7=08_Ballyhoo
TTITLE8=09_Hard to Find
TTITLE9=10_Here He Comes
TTITLE10=11_I'll See You Again
EXTD=Alt-counrty
EXTT0=
EXTT1=
EXTT2=
EXTT3=
EXTT4=
EXTT5=
EXTT6=
EXTT7=
EXTT8=
EXTT9=
EXTT10=
PLAYORDER=
